<?xml version="1.0" encoding="UTF-8"?>
<svg xmlns="http://www.w3.org/2000/svg" width="512" height="512" viewBox="0 0 512 512" role="img" aria-label="Ilustración de Vermut Cooler: vaso highball con líquido ámbar rojizo claro con burbujas, con hielo y rodaja de naranja">
<defs>
<filter id="paper" x="0" y="0" width="100%" height="100%">
<feTurbulence type="fractalNoise" baseFrequency="0.85" numOctaves="3" seed="31" result="n"></feTurbulence>
<feColorMatrix in="n" type="matrix" values="0 0 0 0 0.45  0 0 0 0 0.36  0 0 0 0 0.25  0 0 0 0.22 -0.06" result="speck"></feColorMatrix>
<feComposite in="speck" in2="SourceGraphic" operator="over"></feComposite>
</filter>
<filter id="pencil" x="-10%" y="-10%" width="120%" height="120%">
<feTurbulence type="fractalNoise" baseFrequency="1.1" numOctaves="2" seed="24" result="grain"></feTurbulence>
<feColorMatrix in="grain" type="matrix" values="0 0 0 0 0  0 0 0 0 0  0 0 0 0 0  0 0 0 -1.6 1.25" result="mask"></feColorMatrix>
<feComposite in="SourceGraphic" in2="mask" operator="in" result="tex"></feComposite>
<feTurbulence type="fractalNoise" baseFrequency="0.035" numOctaves="2" seed="29" result="warp"></feTurbulence>
<feDisplacementMap in="tex" in2="warp" scale="3.5" xChannelSelector="R" yChannelSelector="G"></feDisplacementMap>
</filter>
<filter id="line" x="-10%" y="-10%" width="120%" height="120%">
<feTurbulence type="fractalNoise" baseFrequency="0.05" numOctaves="2" seed="22" result="w"></feTurbulence>
<feDisplacementMap in="SourceGraphic" in2="w" scale="2.2" xChannelSelector="R" yChannelSelector="G"></feDisplacementMap>
</filter>
<pattern id="hatch" width="7" height="7" patternUnits="userSpaceOnUse" patternTransform="rotate(-35)">
<line x1="0" y1="0" x2="0" y2="7" stroke="#F0A560" stroke-width="3.2" stroke-opacity="0.75"></line>
</pattern>
<pattern id="hatch2" width="11" height="11" patternUnits="userSpaceOnUse" patternTransform="rotate(52)">
<line x1="0" y1="0" x2="0" y2="11" stroke="#F7D0A6" stroke-width="2" stroke-opacity="0.6"></line>
</pattern>
<linearGradient id="liq" x1="0" y1="0" x2="0" y2="1">
<stop offset="0" stop-color="#EBA56C"></stop>
<stop offset="1" stop-color="#C36D3D"></stop>
</linearGradient>
<pattern id="shadow" width="6" height="6" patternUnits="userSpaceOnUse" patternTransform="rotate(-20)">
<line x1="0" y1="0" x2="0" y2="6" stroke="#9C8F7E" stroke-width="2" stroke-opacity="0.5"></line>
</pattern>
</defs>

<rect width="512" height="512" fill="#F3EBDD" filter="url(#paper)"></rect>

<g filter="url(#pencil)">
<g transform="translate(0 0)"><path d="M146 256 C138 158 228 100 304 116 C384 134 404 236 374 306 C344 372 258 400 192 366 C148 342 150 300 146 256 Z" fill="url(#hatch)"></path>
<path d="M168 244 C174 172 250 134 314 154 C364 170 376 254 346 310 C318 358 240 366 202 338 C176 316 166 280 168 244 Z" fill="url(#hatch2)"></path></g>
<ellipse cx="256" cy="418" rx="70" ry="12" fill="url(#shadow)"></ellipse>
</g>

<g filter="url(#pencil)">
<path d="M204.4 178 Q256 178 307.6 178 L302 404 Q256 404 210 404 L204.4 178 Z" fill="url(#liq)"></path>
<circle cx="246.5" cy="262.9" r="1.8" fill="#FFFFFF"></circle>
<circle cx="241.9" cy="304.9" r="2.4" fill="#FFFFFF"></circle>
<circle cx="234.9" cy="297.2" r="2.3" fill="#FFFFFF"></circle>
<circle cx="286.9" cy="330.4" r="1.7" fill="#FFFFFF"></circle>
<circle cx="260.8" cy="213.7" r="1.9" fill="#FFFFFF"></circle>
<circle cx="224.5" cy="204.5" r="2.1" fill="#FFFFFF"></circle>
<circle cx="268.7" cy="276.1" r="1.5" fill="#FFFFFF"></circle>
<circle cx="245.8" cy="245.3" r="1.6" fill="#FFFFFF"></circle>
<circle cx="220.5" cy="233.7" r="1.9" fill="#FFFFFF"></circle>
<circle cx="282.3" cy="313" r="2.6" fill="#FFFFFF"></circle>
<circle cx="223.6" cy="353.6" r="2.4" fill="#FFFFFF"></circle>
<circle cx="253.7" cy="369.8" r="2.6" fill="#FFFFFF"></circle>

<rect x="218" y="188" width="40" height="38" rx="7" transform="rotate(-8 238 207)" fill="#F4FBFB" fill-opacity="0.78"></rect>
<rect x="252" y="214" width="42" height="40" rx="7" transform="rotate(10 273 234)" fill="#F4FBFB" fill-opacity="0.78"></rect>
<rect x="220" y="244" width="38" height="36" rx="7" transform="rotate(4 239 262)" fill="#F4FBFB" fill-opacity="0.78"></rect>
<rect x="250" y="292" width="40" height="38" rx="7" transform="rotate(-6 270 311)" fill="#F4FBFB" fill-opacity="0.78"></rect>
</g>

<g filter="url(#line)" fill="none" stroke="#3B332C" stroke-linecap="round" stroke-linejoin="round">
<path d="M204 160 L210 406 Q256 414 302 406 L308 160" stroke-width="2.4"></path>
<ellipse cx="256" cy="160" rx="52" ry="7.5" stroke-width="2.2"></ellipse>
<path d="M204.4 178 Q256 186 307.6 178" stroke="#A7744C" stroke-width="1.6" stroke-opacity="0.8"></path>
<path d="M218.3 172L223.6 390" stroke="#FFFFFF" stroke-width="3" stroke-opacity="0.9"></path>
<path d="M293.8 170L292 244" stroke="#FFFFFF" stroke-width="2.4" stroke-opacity="0.8"></path>
<rect x="218" y="188" width="40" height="38" rx="7" transform="rotate(-8 238 207)" stroke="#7FB3B6" stroke-width="1.6"></rect>
<rect x="252" y="214" width="42" height="40" rx="7" transform="rotate(10 273 234)" stroke="#7FB3B6" stroke-width="1.6"></rect>
<rect x="220" y="244" width="38" height="36" rx="7" transform="rotate(4 239 262)" stroke="#7FB3B6" stroke-width="1.6"></rect>
<rect x="250" y="292" width="40" height="38" rx="7" transform="rotate(-6 270 311)" stroke="#7FB3B6" stroke-width="1.6"></rect>
</g>

<g filter="url(#pencil)">
<g transform="rotate(0 300 154)"><circle cx="300" cy="154" r="30" fill="#F08A1C"></circle><circle cx="300" cy="154" r="26" fill="#FBE7B5"></circle><circle cx="300" cy="154" r="22" fill="#F7A63C"></circle><path d="M302.9 154.6 L320.6 158.2 M301.9 156.3 L313.1 170.4 M299.9 157 L299.5 175 M298 156.2 L286.1 169.7 M297 154.4 L279.2 157.1 M297.4 152.4 L282.1 143 M299 151.2 L293.3 134.1 M301.1 151.2 L307.7 134.5 M302.6 152.6 L318.4 144 " fill="none" stroke="#FBE7B5" stroke-width="2.2" stroke-linecap="round"></path></g>
</g>
<g filter="url(#line)">
<g transform="rotate(0 300 154)"><circle cx="300" cy="154" r="30" fill="none" stroke="#9A4E10" stroke-width="1.8"></circle><circle cx="300" cy="154" r="22" fill="none" stroke="#9A4E10" stroke-width="0.9" stroke-opacity="0.55"></circle></g>
</g>
</svg>
